<svg width="42" height="42" viewBox="0 0 42 42" fill="none" xmlns="http://www.w3.org/2000/svg">
<path fill-rule="evenodd" clip-rule="evenodd" d="M36.6905 18.8999H12.1275L21.6667 9.36064C21.8643 9.16622 22.0215 8.9346 22.1291 8.67914C22.2368 8.42368 22.2928 8.14944 22.2939 7.87222C22.2951 7.59501 22.2413 7.32032 22.1357 7.06399C22.0302 6.80766 21.8749 6.57477 21.6789 6.37875C21.4828 6.18273 21.25 6.02746 20.9936 5.92189C20.7373 5.81633 20.4626 5.76256 20.1854 5.76369C19.9082 5.76482 19.6339 5.82082 19.3785 5.92847C19.123 6.03612 18.8914 6.19328 18.697 6.39089L5.57197 19.5159C5.56672 19.5194 5.56497 19.5264 5.55972 19.5316C5.27182 19.8255 5.07655 20.1974 4.99815 20.6012C4.91975 21.005 4.96168 21.4229 5.11872 21.8031C5.22372 22.0534 5.37247 22.2756 5.55972 22.4681L5.57197 22.4856L18.697 35.6106C19.1082 36.0201 19.6455 36.2231 20.181 36.2231C20.5962 36.2231 21.0021 36.1 21.3474 35.8694C21.6926 35.6387 21.9618 35.3109 22.1208 34.9273C22.2798 34.5438 22.3215 34.1217 22.2407 33.7144C22.1599 33.3071 21.9601 32.9329 21.6667 32.6391L12.1292 23.0999H36.6922C37.2492 23.0999 37.7833 22.8786 38.1771 22.4848C38.571 22.091 38.7922 21.5568 38.7922 20.9999C38.7922 20.4429 38.571 19.9088 38.1771 19.515C37.7833 19.1211 37.2492 18.8999 36.6922 18.8999" fill="black"/>
</svg>
