<svg width="60" height="60" viewBox="0 0 60 60" fill="none" xmlns="http://www.w3.org/2000/svg">
<path d="M5 17.5C5 16.1739 5.52678 14.9021 6.46447 13.9645C7.40215 13.0268 8.67392 12.5 10 12.5H50C51.3261 12.5 52.5979 13.0268 53.5355 13.9645C54.4732 14.9021 55 16.1739 55 17.5V42.5C55 43.8261 54.4732 45.0979 53.5355 46.0355C52.5979 46.9732 51.3261 47.5 50 47.5H10C8.67392 47.5 7.40215 46.9732 6.46447 46.0355C5.52678 45.0979 5 43.8261 5 42.5V17.5Z" stroke="black" stroke-width="5" stroke-linecap="round" stroke-linejoin="round"/>
<path d="M30 37.5C34.1421 37.5 37.5 34.1421 37.5 30C37.5 25.8579 34.1421 22.5 30 22.5C25.8579 22.5 22.5 25.8579 22.5 30C22.5 34.1421 25.8579 37.5 30 37.5Z" stroke="black" stroke-width="3" stroke-linecap="round" stroke-linejoin="round"/>
<path d="M45 47.5C45 44.8478 46.0536 42.3043 47.9289 40.4289C49.8043 38.5536 52.3478 37.5 55 37.5M5 22.5C7.65216 22.5 10.1957 21.4464 12.0711 19.5711C13.9464 17.6957 15 15.1522 15 12.5L5 22.5Z" stroke="black" stroke-width="5" stroke-linecap="round" stroke-linejoin="round"/>
</svg>
